<?xml version="1.0" encoding="utf-8"?>
<!-- Generator: Adobe Illustrator 15.1.0, SVG Export Plug-In . SVG Version: 6.00 Build 0)  -->
<!DOCTYPE svg PUBLIC "-//W3C//DTD SVG 1.1//EN" "http://www.w3.org/Graphics/SVG/1.1/DTD/svg11.dtd">
<svg version="1.1" id="Layer_1" xmlns="http://www.w3.org/2000/svg" xmlns:xlink="http://www.w3.org/1999/xlink" x="0px" y="0px"
	 width="34px" height="34px" viewBox="0 0 34 34" enable-background="new 0 0 34 34" xml:space="preserve">
<path d="M33.798,17c0,9.281-7.542,16.771-16.771,16.771c-9.23,0-16.824-7.49-16.824-16.771c0-9.282,7.542-16.771,16.771-16.771
	C26.203,0.229,33.798,7.771,33.798,17z M21.035,8.931h-2.69c-2.9,0.105-3.586,1.74-3.586,3.744v1.741h-1.793v3.059h1.793v8.49h3.586
	v-8.49h2.374l0.316-3.059h-2.69v-1.741c0-0.475,0.211-0.844,0.844-0.844h1.794C21.035,11.831,21.035,8.931,21.035,8.931z"/>
</svg>
