<?xml version="1.0" encoding="utf-8"?>
<!-- Generator: Adobe Illustrator 15.1.0, SVG Export Plug-In . SVG Version: 6.00 Build 0)  -->
<!DOCTYPE svg PUBLIC "-//W3C//DTD SVG 1.1//EN" "http://www.w3.org/Graphics/SVG/1.1/DTD/svg11.dtd">
<svg version="1.1" xmlns="http://www.w3.org/2000/svg" xmlns:xlink="http://www.w3.org/1999/xlink" x="0px" y="0px" width="34px"
	 height="34px" viewBox="0 0 34 34" enable-background="new 0 0 34 34" xml:space="preserve">
<g id="Layer_1" display="none">
	<g display="inline">
		<polygon points="29.728,22.687 18.415,34 33.875,34 33.875,26.833 		"/>
		<polygon points="23.364,16.323 5.687,34 15.586,34 28.314,21.272 		"/>
		<polygon points="17,9.958 -0.125,27.083 -0.125,34 2.858,34 21.95,14.908 		"/>
	</g>
</g>
<g id="Layer_7" display="none">
	<g display="inline">
		<polygon points="-0.125,16 15.875,16 -0.125,0 		"/>
		<polygon points="-0.125,18 -0.125,25 24.875,25 17.875,18 		"/>
		<polygon points="26.875,27 -0.125,27 -0.125,34 33.875,34 		"/>
	</g>
</g>
<g id="Layer_6">
	<g>
		<polygon points="15.875,34 15.875,18 -0.125,34 		"/>
		<polygon points="17.875,34 24.875,34 24.875,9 17.875,16 		"/>
		<polygon points="26.875,7 26.875,34 33.875,34 33.875,0 		"/>
	</g>
</g>
<g id="Layer_3" display="none">
	<g display="inline">
		<polygon points="33.875,18 17.875,18 33.875,34 		"/>
		<polygon points="33.875,16 33.875,9 8.875,9 15.875,16 		"/>
		<polygon points="6.875,7 33.875,7 33.875,0 -0.125,0 		"/>
	</g>
</g>
<g id="Layer_5" display="none">
	<path display="inline" d="M-10.536-5c0,9.283-7.542,16.771-16.771,16.771c-9.23,0-16.824-7.488-16.824-16.771
		c0-9.281,7.542-16.771,16.771-16.771C-18.13-21.771-10.536-14.229-10.536-5z M-23.298-13.068h-2.69
		c-2.9,0.105-3.586,1.74-3.586,3.744v1.74h-1.793v3.059h1.793v8.492h3.586v-8.492h2.374l0.316-3.059h-2.69v-1.74
		c0-0.475,0.211-0.844,0.844-0.844h1.794C-23.298-10.168-23.298-13.068-23.298-13.068z"/>
</g>
<g id="Layer_4" display="none">
	<path display="inline" d="M9.911,55.396c-9.23,0-16.771,7.488-16.771,16.771c0,9.281,7.594,16.771,16.824,16.771
		c9.229,0,16.771-7.49,16.771-16.771C26.735,62.937,19.141,55.396,9.911,55.396z M13.978,77.338
		c-0.912,0.449-2.889,0.785-4.066,0.28c-0.498-0.214-0.73-0.643-1.332-0.771c-0.343,1.373-0.673,3.376-1.402,4.487
		c-0.284,0.435-1.478,0.599-1.753,0c-0.574-1.248,1.31-6.933,1.543-8.133c0.17-0.875-0.966-2.357,0.07-4.067
		c0.369-0.61,1.849-1.73,2.664-0.771c2.406,1.466-2.541,6.601,0.911,7.502c4.137,1.081,5.429-7.867,2.314-9.605
		c-4.023-2.246-7.798,0.645-8.484,3.996c-0.37,1.811,0.818,2.353,0.981,3.576c-0.126,0.416-0.21,0.915-0.561,1.121
		c-1.994,0.58-3.043-4.099-2.313-6.239c0.646-1.898,2.222-3.653,3.996-4.417c0.795-0.211,1.59-0.421,2.384-0.632
		c3.918-0.469,6.932,1.18,8.203,4.207C18.675,71.541,16.262,76.213,13.978,77.338z"/>
</g>
<g id="Layer_2" display="none">
	<path display="inline" d="M84.834,14c0,9.35-7.598,17-17.001,17c-9.403,0-17-7.596-17-17c0-9.403,7.65-17,17-17
		C77.184-3,84.834,4.597,84.834,14z M76.758,9.06c-0.637,0.266-1.275,0.478-1.965,0.53c0.689-0.425,1.275-1.115,1.539-1.911
		c-0.689,0.371-1.381,0.689-2.178,0.85c-0.637-0.691-1.541-1.116-2.496-1.116c-1.912,0-3.453,1.54-3.453,3.453
		c0,0.266,0.053,0.532,0.106,0.797c-2.868-0.159-5.419-1.541-7.119-3.612c-0.319,0.53-0.478,1.115-0.478,1.753
		c0,1.222,0.584,2.231,1.541,2.869c-0.584,0-1.115-0.16-1.541-0.426V12.3c0,1.647,1.168,3.081,2.762,3.4
		c-0.266,0.053-0.584,0.106-0.902,0.106c-0.212,0-0.425,0-0.637-0.054c0.425,1.382,1.7,2.392,3.241,2.392
		c-1.17,0.902-2.657,1.486-4.304,1.486c-0.266,0-0.531,0-0.796-0.053c1.541,0.957,3.346,1.541,5.312,1.541
		c6.321,0,9.827-5.26,9.827-9.829c0-0.159,0-0.317,0-0.425C75.695,10.388,76.281,9.75,76.758,9.06z"/>
</g>
</svg>
