<?xml version="1.0" standalone="no"?>
<!DOCTYPE svg PUBLIC "-//W3C//DTD SVG 1.1//EN" "http://www.w3.org/Graphics/SVG/1.1/DTD/svg11.dtd" >
<svg xmlns="http://www.w3.org/2000/svg">
<metadata>
This is a custom SVG webfont generated by Font Squirrel.
Copyright   : Copyright c 2011 by Locomotiv All rights reserved
Designer    : KT Kristian Moeller
Foundry     : KT Kristian Moeller
</metadata>
<defs>
<font id="LocoSansBold" horiz-adv-x="1474" >
<font-face units-per-em="2048" ascent="1659" descent="-389" />
<missing-glyph horiz-adv-x="552" />
<glyph unicode=" "  horiz-adv-x="552" />
<glyph unicode="&#x09;" horiz-adv-x="552" />
<glyph unicode="&#xa0;" horiz-adv-x="552" />
<glyph unicode="!" horiz-adv-x="737" d="M180 174q0 82 51.5 138.5t133 56.5t133 -56.5t51.5 -138.5t-51.5 -138t-133 -56t-133 56t-51.5 138zM225 809v625h277v-625l-51 -348h-175z" />
<glyph unicode="&#x22;" horiz-adv-x="983" d="M143 778v676h256v-676h-256zM584 778v676h256v-676h-256z" />
<glyph unicode="#" horiz-adv-x="1382" d="M92 287v245h184v369h-184v246h184v287h256v-287h318v287h256v-287h184v-246h-184v-369h184v-245h-184v-287h-256v287h-318v-287h-256v287h-184zM532 532h318v369h-318v-369z" />
<glyph unicode="$" horiz-adv-x="1300" d="M113 238l192 198q145 -170 350 -170q117 0 197 49.5t80 124.5q0 37 -17.5 64.5t-41 45t-67.5 33t-80 23.5t-95.5 21.5t-95.5 23.5q-82 23 -138.5 45.5t-115 63.5t-88 107.5t-29.5 156.5q0 147 103.5 256t264.5 141v125h236v-121q209 -33 373 -174l-183 -209 q-139 125 -303 125q-90 0 -152.5 -41t-62.5 -102q0 -20 8.5 -36.5t27 -30t35.5 -22.5t51 -18.5t57.5 -14.5t67.5 -14t69 -16q80 -18 130 -33.5t118.5 -49t107.5 -75.5t67.5 -113t28.5 -161q0 -164 -125 -282.5t-315 -149.5v-141h-236v143q-249 42 -419 228z" />
<glyph unicode="%" horiz-adv-x="2242" d="M82 993q0 178 121 319.5t299 141.5q176 0 298 -142.5t122 -318.5q0 -178 -122 -319.5t-298 -141.5q-178 0 -299 141.5t-121 319.5zM317 993.5q0 -98.5 54.5 -162t130.5 -63.5q74 0 129 63.5t55 161.5q0 96 -55.5 161t-128.5 65q-76 0 -130.5 -63.5t-54.5 -162zM635 0 l356 717l350 717h267l-359 -717l-348 -717h-266zM1325 440q0 178 121 319.5t299 141.5q176 0 298 -142.5t122 -318.5q0 -178 -122 -319t-298 -141q-178 0 -299 141t-121 319zM1561 440.5q0 -98.5 54 -162t130 -63.5q74 0 129 63.5t55 161.5q0 96 -55 161t-129 65 q-76 0 -130 -63.5t-54 -162z" />
<glyph unicode="&#x26;" horiz-adv-x="1361" d="M113 420q0 240 243 405q-90 154 -90 271q0 156 99.5 257t238.5 101q133 0 235.5 -95t102.5 -243q0 -106 -60.5 -184t-168.5 -158l186 -239q53 131 64 274l235 -92q-27 -213 -137 -393l250 -324h-330q-35 47 -90 117q-160 -137 -338 -137q-180 0 -310 120.5t-130 319.5z M389 420q0 -92 58.5 -143.5t136.5 -51.5q96 0 161 72q-49 63 -134 177t-109 147q-113 -99 -113 -201zM502 1106q0 -66 69 -158q135 86 136 158q0 47 -29 74.5t-74 27.5t-73.5 -30.5t-28.5 -71.5z" />
<glyph unicode="'" horiz-adv-x="563" d="M143 778v676h277v-676h-277z" />
<glyph unicode="(" horiz-adv-x="829" d="M184 624.5q0 477.5 213 907.5l248 -123q-184 -375 -184 -784q0 -412 184 -785l-248 -123q-213 430 -213 907.5z" />
<glyph unicode=")" horiz-adv-x="829" d="M184 -160q184 373 185 785q0 410 -185 784l248 123q213 -430 213 -907.5t-213 -907.5z" />
<glyph unicode="*" horiz-adv-x="1003" d="M92 1165l58 176l260 -86v271h184v-271l260 86l57 -176l-262 -86l164 -223l-149 -108l-162 223l-164 -223l-150 108l164 223z" />
<glyph unicode="+" horiz-adv-x="1290" d="M92 532v277h414v414h276v-414h416v-277h-416v-415h-276v415h-414z" />
<glyph unicode="," horiz-adv-x="552" d="M143 -307v676h277v-492z" />
<glyph unicode="-" horiz-adv-x="737" d="M92 348v277h553v-277h-553z" />
<glyph unicode="." horiz-adv-x="552" d="M92 184q0 82 52.5 143.5t132 61.5t132 -61.5t52.5 -143.5t-52.5 -143t-132 -61t-132 61t-52.5 143z" />
<glyph unicode="/" horiz-adv-x="1024" d="M51 -154l318 830l309 829h295l-318 -829l-309 -830h-295z" />
<glyph unicode="0" d="M92 717q0 182 78 349t229.5 277.5t338 110.5t337 -110.5t229 -277.5t78.5 -349t-78.5 -349t-229 -277.5t-337 -110.5t-338 110.5t-229.5 277.5t-78 349zM369 717q0 -207 110.5 -339t257.5 -132q145 0 257 133t112 338t-111.5 338t-257.5 133q-147 0 -257.5 -132 t-110.5 -339z" />
<glyph unicode="1" horiz-adv-x="860" d="M184 993v164l277 277h184v-1434h-276v993h-185z" />
<glyph unicode="2" horiz-adv-x="1228" d="M92 0q0 147 41 268t105.5 200t143.5 141.5t157.5 107.5t143.5 85t105.5 88t40.5 103q0 80 -61 137.5t-165.5 57.5t-169 -57.5t-64.5 -137.5h-277q0 190 147.5 325.5t362.5 135.5t359.5 -134t144.5 -327q0 -125 -50 -213t-131 -143t-168 -101.5t-177.5 -115t-141.5 -154.5 h668v-266h-1014z" />
<glyph unicode="3" horiz-adv-x="1167" d="M37 143l211 181q123 -78 244 -78q119 0 197.5 57t78.5 137q0 59 -41 108.5t-111 76.5h-309v245h289q111 49 111 154q0 66 -60.5 115t-154.5 49q-131 0 -230 -90l-207 178q164 178 437 178q205 0 348 -122t143 -294q0 -158 -127 -278q188 -135 188 -336 q0 -184 -161.5 -314t-390.5 -130q-267 -1 -455 163z" />
<glyph unicode="4" horiz-adv-x="1351" d="M92 256v246l672 932h342l-666 -912h359v240l276 139v-379h185v-266h-185v-256h-276v256h-707z" />
<glyph unicode="5" horiz-adv-x="1269" d="M143 168l179 203q53 -55 139 -90t174 -35q119 0 197.5 62.5t78.5 148.5q0 84 -78.5 146.5t-197.5 62.5q-143 0 -234 -105l-247 117l92 756h850v-267h-615l-35 -288h11q113 53 225 53q215 0 360.5 -138.5t145.5 -337t-162 -337.5t-391 -139q-147 0 -276.5 51t-215.5 137z " />
<glyph unicode="6" horiz-adv-x="1290" d="M123 532q0 270 121 507t329 395h400l10 -11q-166 -82 -319.5 -245.5t-206.5 -317.5h10q121 72 256 72q211 0 358.5 -130t147.5 -325q0 -211 -161 -354t-392 -143q-104 0 -200.5 32.5t-176.5 98t-128 174t-48 247.5zM399 457q0 -86 79 -148.5t198 -62.5t197.5 62.5 t78.5 148.5q0 84 -78.5 146.5t-197.5 62.5t-198 -62.5t-79 -146.5z" />
<glyph unicode="7" horiz-adv-x="1136" d="M61 1167v267h1014v-256l-557 -1178h-303l559 1167h-713z" />
<glyph unicode="8" horiz-adv-x="1351" d="M123 426q0 199 188 334q-127 121 -127 280q0 170 143.5 292t348.5 122t348 -122t143 -292q0 -160 -127 -280q188 -135 189 -334q0 -186 -162 -316t-391.5 -130t-391 130t-161.5 316zM399 451q0 -84 78 -144.5t199 -60.5t198.5 60.5t77.5 144.5q0 59 -41 108t-110 76h-248 q-70 -27 -112 -76t-42 -108zM461 1014q0 -47 30.5 -89t81.5 -65h207q111 49 111 154q0 70 -60.5 122t-154.5 52t-154.5 -52t-60.5 -122z" />
<glyph unicode="9" horiz-adv-x="1290" d="M61 958q0 211 161 353.5t392 142.5q104 0 200.5 -32.5t176.5 -98.5t128 -174.5t48 -247.5q0 -270 -120.5 -506.5t-329.5 -394.5h-398l-10 10q164 82 317.5 246t209.5 317h-11q-123 -72 -258 -71q-211 0 -358.5 129.5t-147.5 326.5zM338 979q0 -86 79 -148.5t197.5 -62.5 t197.5 62.5t79 148.5q0 84 -79 146.5t-197.5 62.5t-197.5 -62.5t-79 -146.5z" />
<glyph unicode=":" horiz-adv-x="563" d="M98 184q0 82 52.5 143.5t132.5 61.5q82 0 133 -60.5t51 -144.5t-51 -144t-133 -60q-80 0 -132.5 61t-52.5 143zM98 809q0 82 52.5 143.5t132.5 61.5q82 0 133 -60.5t51 -144.5t-51 -144.5t-133 -60.5q-80 0 -132.5 61.5t-52.5 143.5z" />
<glyph unicode=";" horiz-adv-x="563" d="M98 809q0 82 52.5 143.5t132.5 61.5q82 0 133 -60.5t51 -144.5t-51 -144.5t-133 -60.5q-80 0 -132.5 61.5t-52.5 143.5zM145 -307v676h277v-492z" />
<glyph unicode="&#x3c;" horiz-adv-x="737" d="M92 563v225l553 349v-287l-313 -170v-10l313 -178v-297z" />
<glyph unicode="=" horiz-adv-x="1290" d="M92 276v277h1106v-277h-1106zM92 788v277h1106v-277h-1106z" />
<glyph unicode="&#x3e;" horiz-adv-x="737" d="M92 195v286l314 170v11l-314 178v297l553 -369v-225z" />
<glyph unicode="?" horiz-adv-x="1085" d="M66 1276q164 178 436 178q205 0 348 -122t143 -294q0 -80 -41 -149.5t-99 -119.5t-117.5 -96t-100.5 -100.5t-41 -111.5h-277q0 92 41 171t99.5 131t118 97t100.5 89t41 85q0 63 -63.5 108.5t-151.5 45.5q-131 0 -230 -90zM276 174q0 82 51.5 138.5t133.5 56.5t133 -56.5 t51 -138.5t-51 -138t-133 -56t-133.5 56t-51.5 138z" />
<glyph unicode="@" horiz-adv-x="2017" d="M113 532q0 401 254 661.5t657 260.5q383 0 632 -246.5t249 -634.5q0 -281 -138.5 -427t-312.5 -146q-223 0 -317 186h-11q-96 -70 -190 -69q-150 0 -246 120.5t-96 295t96 294t246 119.5q86 0 180 -72h10v52h236v-547q0 -72 31.5 -113t91.5 -41q68 0 126 90.5t58 257.5 q0 287 -186.5 471.5t-458.5 184.5q-293 0 -484.5 -195.5t-191.5 -501.5q0 -295 196.5 -493.5t469.5 -202.5q133 -4 233 45l103 -207q-162 -63 -336 -63q-383 0 -642 263t-259 658zM829 532q0 -80 43 -135t115 -55q94 0 139 92v195q-45 92 -139 92q-72 0 -115 -55.5 t-43 -133.5z" />
<glyph unicode="A" horiz-adv-x="1392" d="M51 0l463 1434h367l460 -1434h-288l-80 256h-561l-80 -256h-281zM492 512h401l-197 629h-10z" />
<glyph unicode="B" horiz-adv-x="1372" d="M184 0v1434h584q180 0 305 -117t125 -293q0 -150 -92 -258q154 -127 154 -332q0 -186 -133.5 -310t-323.5 -124h-619zM461 266h342q76 0 128 47t52 121q0 76 -52 128t-128 52h-342v-348zM461 870h315q61 0 103.5 46.5t42.5 107.5t-45.5 102t-108.5 41h-307v-297z" />
<glyph unicode="C" horiz-adv-x="1228" d="M113 717q0 182 77.5 349t229 277.5t338.5 110.5q227 0 399 -162l-184 -198q-113 94 -215 94q-154 0 -261.5 -131t-107.5 -340t107.5 -340t261.5 -131q106 0 215 94l184 -199q-172 -162 -399 -161q-186 0 -338 110.5t-229.5 277.5t-77.5 349z" />
<glyph unicode="D" horiz-adv-x="1402" d="M184 0v1434h492q186 0 329.5 -105.5t214 -266.5t70.5 -345.5t-70.5 -345t-214 -266t-329.5 -105.5h-492zM461 266h215q145 0 241.5 122t96.5 329t-96.5 328.5t-241.5 121.5h-215v-901z" />
<glyph unicode="E" horiz-adv-x="1167" d="M184 0v1434h830v-267h-553v-286h461v-267h-461v-348h553v-266h-830z" />
<glyph unicode="F" horiz-adv-x="1044" d="M184 0v1434h799v-267h-522v-286h430v-267h-430v-614h-277z" />
<glyph unicode="G" horiz-adv-x="1443" d="M113 717q0 182 77.5 349t229 277.5t338.5 110.5q285 0 475 -246l-209 -168q-121 147 -266 148q-154 0 -261.5 -131t-107.5 -340q0 -207 110.5 -339t258.5 -132q127 0 206.5 84t79.5 202v11h-378v266h645v-277q0 -231 -156 -391.5t-397 -160.5q-186 0 -338 110.5 t-229.5 277.5t-77.5 349z" />
<glyph unicode="H" d="M184 0v1434h277v-543h553v543h276v-1434h-276v625h-553v-625h-277z" />
<glyph unicode="I" horiz-adv-x="645" d="M184 0v1434h277v-1434h-277z" />
<glyph unicode="J" horiz-adv-x="829" d="M92 0v266h137q66 0 103 37t37 103v1028h276v-1039q0 -178 -116.5 -286.5t-299.5 -108.5h-137z" />
<glyph unicode="K" horiz-adv-x="1341" d="M184 0v1434h277v-545h10l436 545h350l-473 -568l506 -866h-321l-381 655h-10l-117 -153v-502h-277z" />
<glyph unicode="L" horiz-adv-x="1013" d="M184 0v1434h277v-1168h461v-266h-738z" />
<glyph unicode="M" horiz-adv-x="1658" d="M184 0v1434h338l318 -443l297 443h338v-1434h-277v1083h-10l-359 -520l-358 510h-10v-1073h-277z" />
<glyph unicode="N" horiz-adv-x="1505" d="M184 0v1434h308l555 -967h8v967h266v-1434h-307l-553 967h-10v-967h-267z" />
<glyph unicode="O" d="M92 717q0 182 78 349t229.5 277.5t338 110.5t337 -110.5t229 -277.5t78.5 -349t-78.5 -349t-229 -277.5t-337 -110.5t-338 110.5t-229.5 277.5t-78 349zM369 717q0 -207 110.5 -339t257.5 -132q145 0 257 133t112 338t-111.5 338t-257.5 133q-147 0 -257.5 -132 t-110.5 -339z" />
<glyph unicode="P" horiz-adv-x="1269" d="M184 0v1434h590q182 0 303 -128t121 -309q0 -178 -121 -302t-303 -124h-313v-571h-277zM461 838h291q76 0 123 49t47 120.5t-46.5 115.5t-123.5 44h-291v-329z" />
<glyph unicode="Q" d="M92 717q0 182 78 349t229.5 277.5t338 110.5t337 -110.5t229 -277.5t78.5 -349q0 -244 -151 -453l244 -264h-338l-80 86q-150 -106 -320 -106q-186 0 -337.5 110.5t-229.5 277.5t-78 349zM369 717q0 -207 110.5 -339t257.5 -132q72 0 142 26l-234 260h338l70 -75 q53 113 53 260q0 205 -111.5 338t-257.5 133q-147 0 -257.5 -132t-110.5 -339z" />
<glyph unicode="R" horiz-adv-x="1290" d="M184 0v1434h590q182 0 303 -128t121 -309q0 -139 -77 -248.5t-203 -152.5l311 -596h-314l-276 571h-178v-571h-277zM461 838h291q76 0 123 49t47 120.5t-46.5 115.5t-123.5 44h-291v-329z" />
<glyph unicode="S" horiz-adv-x="1259" d="M82 217l192 199q145 -170 351 -170q117 0 196.5 49t79.5 125q0 37 -17.5 65.5t-40 46t-68.5 35t-78.5 26.5t-96 24.5t-96.5 23.5q-168 45 -269.5 133t-101.5 260q0 176 148.5 298t353.5 122q283 0 491 -182l-182 -209q-139 125 -309 125q-102 0 -163.5 -44t-61.5 -110 q0 -35 22.5 -61.5t75.5 -48t94 -32.5t123 -30q98 -25 163.5 -49.5t139.5 -72.5t112 -128t38 -192q0 -188 -161 -314t-392 -126q-158 0 -299.5 62t-243.5 175z" />
<glyph unicode="T" horiz-adv-x="1075" d="M92 1167v267h891v-267h-307v-1167h-277v1167h-307z" />
<glyph unicode="U" d="M184 502v932h277v-912q0 -121 80 -198.5t196 -77.5q119 0 198 68.5t79 187.5v932h276v-912q0 -227 -160.5 -384.5t-392.5 -157.5q-233 0 -393 148.5t-160 373.5z" />
<glyph unicode="V" horiz-adv-x="1392" d="M51 1434h289l356 -1141h11l354 1141h280l-462 -1434h-367z" />
<glyph unicode="W" horiz-adv-x="2211" d="M51 1434h299l303 -990h11l307 990h278l310 -981h10l311 981h281l-463 -1434h-277l-315 979h-10l-305 -979h-277z" />
<glyph unicode="X" horiz-adv-x="1300" d="M51 0l445 741l-414 693h307l260 -455h10l263 455h297l-414 -693l444 -741h-307l-293 504h-10l-291 -504h-297z" />
<glyph unicode="Y" horiz-adv-x="1218" d="M41 1434h307l260 -492h10l261 492h299l-433 -752v-682h-276v682z" />
<glyph unicode="Z" horiz-adv-x="1228" d="M92 0v236l656 931h-656v267h1014v-236l-657 -932h657v-266h-1014z" />
<glyph unicode="[" horiz-adv-x="829" d="M184 -256v1761h461v-266h-184v-1229h184v-266h-461z" />
<glyph unicode="\" horiz-adv-x="1024" d="M51 1505h295l309 -829l318 -830h-295l-309 830z" />
<glyph unicode="]" horiz-adv-x="829" d="M184 10h185v1229h-185v266h461v-1761h-461v266z" />
<glyph unicode="^" horiz-adv-x="1167" d="M123 492l307 327h307l307 -327h-307l-153 159h-11l-153 -159h-297z" />
<glyph unicode="_" horiz-adv-x="1290" d="M-10 -184h1310v-185h-1310v185z" />
<glyph unicode="`" horiz-adv-x="1167" d="M307 1526h389l164 -348h-256z" />
<glyph unicode="a" horiz-adv-x="1310" d="M113 532.5q0 229.5 132 391t328 161.5q145 0 267 -108h10v88h276v-1065h-276v86h-10q-119 -106 -267 -106q-197 0 -328.5 161.5t-131.5 391zM389 532q0 -121 66.5 -203.5t179.5 -82.5q152 0 215 139v293q-63 141 -215 141q-113 0 -179.5 -84t-66.5 -203z" />
<glyph unicode="b" horiz-adv-x="1310" d="M184 0v1495h277v-518h10q121 109 266 108q197 0 329 -161.5t132 -391t-132 -391t-329 -161.5q-147 0 -266 106h-10v-86h-277zM461 385q63 -139 215 -139q113 0 179.5 83t66.5 203q0 119 -67 203t-179 84q-152 0 -215 -141v-293z" />
<glyph unicode="c" horiz-adv-x="1024" d="M113 532.5q0 229.5 152.5 391t379.5 161.5q172 0 307 -90l-149 -225q-70 49 -158 49q-111 0 -183.5 -85t-72.5 -202q0 -119 73 -202.5t183 -83.5q88 0 158 49l149 -225q-135 -90 -307 -90q-227 0 -379.5 161.5t-152.5 391z" />
<glyph unicode="d" horiz-adv-x="1310" d="M113 532.5q0 229.5 132 391t328 161.5q145 0 267 -108h10v518h276v-1495h-276v86h-10q-119 -106 -267 -106q-197 0 -328.5 161.5t-131.5 391zM389 532q0 -121 66.5 -203.5t179.5 -82.5q152 0 215 139v293q-63 141 -215 141q-113 0 -179.5 -84t-66.5 -203z" />
<glyph unicode="e" horiz-adv-x="1228" d="M113 532.5q0 229.5 152.5 391t379.5 161.5q209 0 350.5 -145t141.5 -356v-123h-752q10 -100 80 -168t180 -68q135 0 254 111l168 -199q-180 -158 -422 -157q-227 0 -379.5 161.5t-152.5 391zM389 625h471q0 78 -61.5 146.5t-163.5 68.5q-100 0 -161.5 -59.5t-84.5 -155.5 z" />
<glyph unicode="f" horiz-adv-x="798" d="M102 799v266h123v246q0 80 52.5 132t132.5 52h245v-266h-61q-43 0 -67.5 -25.5t-24.5 -66.5v-72h153v-266h-153v-799h-277v799h-123z" />
<glyph unicode="g" horiz-adv-x="1310" d="M113 553q0 227 131 379.5t329 152.5q145 0 267 -108h10v88h276v-1065q0 -164 -154.5 -276.5t-398.5 -112.5q-213 0 -399 104l121 207q115 -66 278 -65q131 0 204 56t73 138v96h-10q-119 -106 -267 -106q-199 0 -329.5 143.5t-130.5 368.5zM389 553q0 -119 65.5 -192.5 t180.5 -73.5q152 0 215 139v252q-63 141 -215 141q-115 0 -180.5 -74.5t-65.5 -191.5z" />
<glyph unicode="h" horiz-adv-x="1269" d="M184 0v1495h277v-512h10q109 102 250 102q164 0 274.5 -110.5t110.5 -274.5v-700h-277v625q0 84 -53 139t-131 55t-131 -55t-53 -139v-625h-277z" />
<glyph unicode="i" horiz-adv-x="645" d="M154 1352q0 72 47 123t122.5 51t122 -50.5t46.5 -124t-46.5 -123.5t-122 -50t-122.5 50t-47 124zM184 0v1065h277v-1065h-277z" />
<glyph unicode="j" horiz-adv-x="665" d="M51 -102h62q43 0 67.5 25.5t24.5 66.5v1075h276v-1065q0 -162 -104.5 -265.5t-263.5 -103.5h-62v267zM174 1352q0 72 47 123t123 51t122 -50.5t46 -124t-46 -123.5t-122 -50t-123 50t-47 124z" />
<glyph unicode="k" horiz-adv-x="1249" d="M184 0v1495h277v-823h10l344 393h361l-424 -447l446 -618h-342l-311 434h-10l-74 -86v-348h-277z" />
<glyph unicode="l" horiz-adv-x="645" d="M184 0v1495h277v-1495h-277z" />
<glyph unicode="m" horiz-adv-x="1873" d="M184 0v1065h277v-82h10q109 102 240 102q205 0 311 -163q117 164 313 163q164 0 269.5 -109.5t105.5 -275.5v-700h-276v625q0 84 -49.5 139t-125 55t-124 -52t-50.5 -134v-633h-276v625q0 84 -49 139t-125 55t-125 -55t-49 -139v-625h-277z" />
<glyph unicode="n" horiz-adv-x="1269" d="M184 0v1065h277v-82h10q109 102 250 102q164 0 274.5 -110.5t110.5 -274.5v-700h-277v625q0 84 -53 139t-131 55t-131 -55t-53 -139v-625h-277z" />
<glyph unicode="o" horiz-adv-x="1249" d="M92 532.5q0 229.5 152.5 391t380 161.5t380 -161.5t152.5 -391t-152.5 -391t-380 -161.5t-380 161.5t-152.5 391zM369 532q0 -119 72.5 -202.5t183.5 -83.5q113 0 184.5 84t71.5 202q0 117 -72 202t-184 85q-111 0 -183.5 -85t-72.5 -202z" />
<glyph unicode="p" horiz-adv-x="1310" d="M184 -369v1434h277v-88h10q121 109 266 108q197 0 329 -161.5t132 -391t-132 -391t-329 -161.5q-147 0 -266 106h-10v-455h-277zM461 385q63 -139 215 -139q113 0 179.5 83t66.5 203q0 119 -67 203t-179 84q-152 0 -215 -141v-293z" />
<glyph unicode="q" horiz-adv-x="1310" d="M113 532.5q0 229.5 132 391t328 161.5q145 0 267 -108h10v88h276v-1434h-276v455h-10q-119 -106 -267 -106q-197 0 -328.5 161.5t-131.5 391zM389 532q0 -121 66.5 -203.5t179.5 -82.5q152 0 215 139v293q-63 141 -215 141q-113 0 -179.5 -84t-66.5 -203z" />
<glyph unicode="r" horiz-adv-x="942" d="M205 0v1065h276v-100h8q143 121 330 120q53 0 92 -8v-297q-61 29 -137 29q-100 0 -177 -51t-116 -133v-625h-276z" />
<glyph unicode="s" horiz-adv-x="1136" d="M92 129l141 213q154 -117 318 -117q100 0 148.5 28t48.5 64q0 20 -12.5 36t-45.5 29t-56.5 19.5t-80.5 20.5t-84 20q-164 41 -254 110t-90 212q0 156 124 238.5t306 82.5q248 0 459 -141l-144 -213q-141 109 -305 109t-164 -92q0 -23 12.5 -39.5t45.5 -28.5t56.5 -19.5 t80.5 -19.5l86 -18q164 -43 253 -112t89 -212q0 -156 -125 -237.5t-317 -81.5q-271 -1 -490 149z" />
<glyph unicode="t" horiz-adv-x="798" d="M102 799v266h123v235l277 134v-369h153v-266h-153v-441q0 -41 24.5 -66.5t67.5 -25.5h61v-266h-245q-80 0 -132.5 52t-52.5 132v615h-123z" />
<glyph unicode="u" horiz-adv-x="1269" d="M164 365v700h276v-625q0 -84 53.5 -139t131 -55t131 55t53.5 139v625h276v-1065h-276v82h-10q-109 -102 -250 -102q-164 0 -274.5 110.5t-110.5 274.5z" />
<glyph unicode="v" horiz-adv-x="1208" d="M51 1065h305l248 -717h10l248 717h295l-399 -1065h-307z" />
<glyph unicode="w" horiz-adv-x="1884" d="M61 1065h304l229 -717h10l195 717h297l204 -717h11l219 717h293l-375 -1065h-307l-199 664h-10l-189 -664h-307z" />
<glyph unicode="x" horiz-adv-x="1249" d="M72 0l387 532l-377 533h340l209 -317h10l205 317h321l-379 -518l390 -547h-342l-220 330h-10l-215 -330h-319z" />
<glyph unicode="y" horiz-adv-x="1208" d="M51 1065h305l248 -717h10l248 717h295l-539 -1434h-294l137 369z" />
<glyph unicode="z" horiz-adv-x="1167" d="M123 0v236l543 563h-543v266h921v-236l-542 -563h542v-266h-921z" />
<glyph unicode="{" horiz-adv-x="829" d="M61 522v246q41 0 68 10t38 30.5t14 42t3 54.5v185q0 180 136.5 297.5t324.5 117.5v-266q-80 0 -132 -35t-52 -114v-175q0 -164 -119 -266q119 -100 119 -266v-225q0 -147 184 -148v-266q-188 0 -324.5 118t-136.5 296v225q0 35 -3 55.5t-14 42t-38 31.5t-68 10z" />
<glyph unicode="|" horiz-adv-x="645" d="M184 -307v1986h277v-1986h-277z" />
<glyph unicode="}" horiz-adv-x="829" d="M184 10q184 0 185 148v225q0 166 118 266q-119 102 -118 266v175q0 80 -52.5 114.5t-132.5 34.5v266q188 0 324.5 -117.5t136.5 -297.5v-185q0 -33 3 -54.5t14.5 -42t38 -30.5t67.5 -10v-246q-41 0 -67.5 -10t-38 -31.5t-14.5 -42t-3 -55.5v-225q0 -178 -136 -296 t-325 -118v266z" />
<glyph unicode="~" horiz-adv-x="1167" d="M123 492q0 150 92 259t207 109q57 0 107.5 -22.5t79 -49t65.5 -49t69 -22.5q96 0 97 123h204q0 -158 -91 -263.5t-208 -105.5q-72 0 -130 36t-104 71.5t-87 35.5q-43 0 -69.5 -36.5t-26.5 -85.5h-205z" />
<glyph unicode="&#xa1;" horiz-adv-x="737" d="M180 1259.5q0 81.5 51.5 138t133 56.5t133 -56.5t51.5 -138t-51.5 -138t-133 -56.5t-133 56.5t-51.5 138zM225 0v625l51 348h175l51 -348v-625h-277z" />
<glyph unicode="&#xa2;" horiz-adv-x="1024" d="M113 532.5q0 196.5 114.5 339t298.5 181.5v166h185v-158q131 -14 241 -86l-149 -225q-70 49 -158 49q-113 0 -184.5 -76t-71.5 -191q0 -117 71.5 -191.5t184.5 -74.5q88 0 158 49l149 -225q-104 -70 -241 -86v-158h-185v166q-184 39 -298.5 181.5t-114.5 339z" />
<glyph unicode="&#xa3;" horiz-adv-x="1228" d="M184 1036q0 174 143.5 296t348.5 122q274 0 461 -180l-195 -195q-113 102 -266 103q-88 0 -151.5 -45t-63.5 -109q0 -45 67.5 -160.5t89.5 -181.5h334v-215h-311q-16 -119 -98 -215h594v-256h-922v236q6 2 16.5 7t38 24.5t50 44t44 67.5t29.5 92h-178v215h135 q-14 25 -51 74t-57.5 81.5t-39 86t-18.5 108.5z" />
<glyph unicode="&#xa4;" horiz-adv-x="1658" d="M92 164l266 264q-82 135 -82 289q0 158 80 289l-264 264l184 184l265 -264q131 80 288.5 80t292.5 -84l271 268l174 -184l-267 -264q82 -135 82 -289q0 -158 -79 -289l264 -264l-185 -184l-264 264q-131 -80 -289 -80q-160 0 -292 84l-271 -268zM553 716.5 q0 -114.5 81 -195.5t195.5 -81t195.5 81t81 195.5t-81 195.5t-195.5 81t-195.5 -81t-81 -195.5z" />
<glyph unicode="&#xa5;" horiz-adv-x="1300" d="M82 1434h307l260 -492h10l261 492h299l-433 -748h326v-215h-326v-471h-276v471h-326v215h326z" />
<glyph unicode="&#xa6;" horiz-adv-x="645" d="M184 -307v839h277v-839h-277zM184 901v840h277v-840h-277z" />
<glyph unicode="&#xa7;" horiz-adv-x="1290" d="M92 532q0 170 162 287q-100 78 -100 236q0 174 142 286.5t349 112.5q276 0 485 -182l-182 -209q-139 125 -303 125q-92 0 -153.5 -36t-61.5 -97q0 -76 127 -127q57 4 88 4q236 0 394.5 -117t158.5 -283q0 -168 -164 -286q102 -78 103 -236q0 -174 -142.5 -286.5 t-349.5 -112.5q-276 0 -485 182l182 209q139 -125 303 -125q92 0 153.5 36t61.5 97q0 74 -129 127q-57 -4 -86 -4q-238 0 -395.5 116.5t-157.5 282.5zM369 532q0 -68 76.5 -110.5t199.5 -42.5t200 43t77 110q0 66 -78 110t-199 44t-198.5 -44t-77.5 -110z" />
<glyph unicode="&#xa8;" horiz-adv-x="1167" d="M150 1351.5q0 73.5 45 124t118.5 50.5t118.5 -50.5t45 -124t-44 -123.5t-119.5 -50t-119.5 50t-44 123.5zM692 1351.5q0 73.5 45 124t119 50.5t119 -50.5t45 -124t-44 -123.5t-120 -50t-120 50t-44 123.5z" />
<glyph unicode="&#xa9;" horiz-adv-x="1658" d="M92 717q0 305 216 521t521.5 216t521.5 -216t216 -521t-216 -521t-521.5 -216t-521.5 216t-216 521zM276 716.5q0 -235.5 162 -399t391.5 -163.5t391 163.5t161.5 399t-161.5 399.5t-391 164t-391.5 -164t-162 -399.5zM526 717q0 145 95.5 262t238.5 117q117 0 221 -101 l-116 -121q-57 47 -105 48q-63 0 -111.5 -57.5t-48.5 -147.5q0 -92 47.5 -148.5t112.5 -56.5q49 0 105 49l116 -125q-102 -98 -221 -98q-145 0 -239.5 116t-94.5 263z" />
<glyph unicode="&#xaa;" horiz-adv-x="1013" d="M82 1040q0 174 96 294t246 120q86 0 180 -72h10v52h236v-793h-236v53h-10q-96 -70 -180 -69q-150 0 -246 120.5t-96 294.5zM317 1040q0 -80 43 -135t115 -55q94 0 139 92v195q-45 92 -139 92q-72 0 -115 -55.5t-43 -133.5z" />
<glyph unicode="&#xab;" horiz-adv-x="1290" d="M92 440v226l553 348v-287l-313 -170v-10l313 -178v-297zM645 440v226l553 348v-287l-313 -170v-10l313 -178v-297z" />
<glyph unicode="&#xad;" horiz-adv-x="737" d="M92 348v277h553v-277h-553z" />
<glyph unicode="&#xae;" horiz-adv-x="1658" d="M92 717q0 305 216 521t521.5 216t521.5 -216t216 -521t-216 -521t-521.5 -216t-521.5 216t-216 521zM276 716.5q0 -235.5 162 -399t391.5 -163.5t391 163.5t161.5 399t-161.5 399.5t-391 164t-391.5 -164t-162 -399.5zM571 348v737h308q96 0 160.5 -66.5t64.5 -160.5 q0 -68 -35 -122t-92 -83l158 -305h-201l-133 293h-56v-293h-174zM745 795h123q29 0 45.5 17t16.5 46q0 27 -16.5 45.5t-45.5 18.5h-123v-127z" />
<glyph unicode="&#xaf;" horiz-adv-x="1167" d="M184 1229v246h799v-246h-799z" />
<glyph unicode="&#xb0;" horiz-adv-x="737" d="M92 1177.5q0 114.5 81 195.5t195.5 81t195.5 -81t81 -195.5t-81 -195.5t-195.5 -81t-195.5 81t-81 195.5zM276 1178q0 -39 27 -66t66 -27t65.5 27t26.5 66t-26.5 65.5t-65.5 26.5t-66 -26.5t-27 -65.5z" />
<glyph unicode="&#xb2;" horiz-adv-x="1003" d="M143 553q0 113 49.5 204t121 145t142 96t120 79t49.5 70q0 41 -34 66.5t-89.5 25.5t-89 -26.5t-33.5 -65.5h-236q0 137 107.5 222t251.5 85q145 0 251.5 -84t106.5 -223q0 -72 -53 -128t-119.5 -87t-141.5 -76t-106 -88h420v-215h-717z" />
<glyph unicode="&#x2072;" horiz-adv-x="1003" d="M143 553q0 113 49.5 204t121 145t142 96t120 79t49.5 70q0 41 -34 66.5t-89.5 25.5t-89 -26.5t-33.5 -65.5h-236q0 137 107.5 222t251.5 85q145 0 251.5 -84t106.5 -223q0 -72 -53 -128t-119.5 -87t-141.5 -76t-106 -88h420v-215h-717z" />
<glyph unicode="&#xb3;" horiz-adv-x="1003" d="M133 647l148 146q72 -45 174 -45q160 0 159 88q0 59 -77 86h-232v174h217q55 29 56 71q0 72 -123 72q-104 0 -162 -53l-148 143q51 55 137.5 90t172.5 35q141 0 249.5 -72.5t108.5 -193.5q0 -90 -72 -168q109 -86 109 -205q0 -129 -120 -206t-275 -77q-193 0 -322 115z " />
<glyph unicode="&#x2073;" horiz-adv-x="1003" d="M133 647l148 146q72 -45 174 -45q160 0 159 88q0 59 -77 86h-232v174h217q55 29 56 71q0 72 -123 72q-104 0 -162 -53l-148 143q51 55 137.5 90t172.5 35q141 0 249.5 -72.5t108.5 -193.5q0 -90 -72 -168q109 -86 109 -205q0 -129 -120 -206t-275 -77q-193 0 -322 115z " />
<glyph unicode="&#xb4;" horiz-adv-x="1167" d="M307 1178l174 348h379l-307 -348h-246z" />
<glyph unicode="&#xb5;" horiz-adv-x="1280" d="M174 -369v1434h277v-625q0 -84 53 -139t131 -55t131 55t53 139v625h277v-1065h-277v82h-10q-20 -45 -68.5 -73.5t-105.5 -28.5q-127 0 -174 102h-10v-451h-277z" />
<glyph unicode="&#x3bc;" horiz-adv-x="1280" d="M174 -369v1434h277v-625q0 -84 53 -139t131 -55t131 55t53 139v625h277v-1065h-277v82h-10q-20 -45 -68.5 -73.5t-105.5 -28.5q-127 0 -174 102h-10v-451h-277z" />
<glyph unicode="&#xb6;" horiz-adv-x="1290" d="M92 1007.5q0 178.5 121 302.5t303 124h590v-1803h-184v1639h-185v-1639h-184v951h-37q-182 0 -303 123.5t-121 302z" />
<glyph unicode="&#xb7;" horiz-adv-x="552" d="M92 532.5q0 81.5 52.5 143t132 61.5t132 -61.5t52.5 -143t-52.5 -143t-132 -61.5t-132 61.5t-52.5 143z" />
<glyph unicode="&#xb8;" horiz-adv-x="1167" d="M266 -317l103 143q70 -61 196 -62q90 0 90 41q0 10 -12 20.5t-38.5 20t-48 14.5t-60.5 14t-56 13l109 185h184l-80 -133q137 -23 187.5 -63t50.5 -101q0 -72 -81 -118t-237 -46q-96 0 -157.5 15.5t-149.5 56.5z" />
<glyph unicode="&#xb9;" horiz-adv-x="1003" d="M287 1137v133l178 164h180v-881h-235v584h-123z" />
<glyph unicode="&#x2071;" horiz-adv-x="1003" d="M287 1137v133l178 164h180v-881h-235v584h-123z" />
<glyph unicode="&#xba;" horiz-adv-x="962" d="M82 1040q0 174 112.5 294t286.5 120q172 0 286 -120t114 -294q0 -172 -114 -293.5t-286 -121.5q-174 0 -286.5 120.5t-112.5 294.5zM317 1040q0 -78 46.5 -134t118 -56t117.5 56.5t46 133.5q0 76 -46 132.5t-117.5 56.5t-118 -56.5t-46.5 -132.5z" />
<glyph unicode="&#xbb;" horiz-adv-x="1290" d="M92 72v286l314 170v11l-314 178v297l553 -369v-225zM645 72v286l313 170v11l-313 178v297l553 -369v-225z" />
<glyph unicode="&#xbc;" horiz-adv-x="2242" d="M297 1137v133l178 164h180v-881h-235v584h-123zM635 0l356 717l350 717h267l-359 -717l-348 -717h-266zM1329 143v189l418 549h276l-407 -543h186v139l226 113v-242h112v-205h-112v-143h-236v143h-463z" />
<glyph unicode="&#xbd;" horiz-adv-x="2242" d="M297 1137v133l178 164h180v-881h-235v584h-123zM604 0l357 717l350 717h266l-358 -717l-349 -717h-266zM1386 0q0 96 36 176t89.5 130t116 95t115.5 73t89 59.5t36 60.5q0 41 -34 66.5t-89 25.5t-89 -26.5t-34 -65.5h-236q0 137 108 222t251 85q145 0 251.5 -84 t106.5 -223q0 -72 -53 -128t-119.5 -87t-141.5 -76t-106 -88h420v-215h-717z" />
<glyph unicode="&#xbe;" horiz-adv-x="2242" d="M133 647l148 146q72 -45 174 -45q160 0 159 88q0 59 -77 86h-232v174h217q55 29 56 71q0 72 -123 72q-104 0 -162 -53l-148 143q51 55 137.5 90t172.5 35q141 0 249.5 -72.5t108.5 -193.5q0 -90 -72 -168q109 -86 109 -205q0 -129 -120 -206t-275 -77q-193 0 -322 115z M696 0l357 717l350 717h266l-358 -717l-348 -717h-267zM1329 143v189l418 549h276l-407 -543h186v139l226 113v-242h112v-205h-112v-143h-236v143h-463z" />
<glyph unicode="&#xbf;" horiz-adv-x="1085" d="M92 395q0 80 41 149.5t99.5 120t118 96.5t100.5 100t41 112h276q0 -92 -41 -171t-99.5 -131.5t-117.5 -97.5t-100 -89t-41 -85q0 -63 63.5 -108t151.5 -45q131 0 229 90l207 -178q-164 -178 -436 -178q-205 0 -348.5 121.5t-143.5 293.5zM440 1259.5q0 81.5 51.5 138 t133.5 56.5t133 -56.5t51 -138t-51 -138t-133 -56.5t-133.5 56.5t-51.5 138z" />
<glyph unicode="&#xc0;" horiz-adv-x="1392" d="M51 0l463 1434h367l460 -1434h-288l-80 256h-561l-80 -256h-281zM342 1874h389l164 -348h-256zM492 512h401l-197 629h-10z" />
<glyph unicode="&#xc1;" horiz-adv-x="1392" d="M51 0l463 1434h367l460 -1434h-288l-80 256h-561l-80 -256h-281zM492 512h401l-197 629h-10zM506 1526l174 348h379l-307 -348h-246z" />
<glyph unicode="&#xc2;" horiz-adv-x="1392" d="M51 0l463 1434h367l460 -1434h-288l-80 256h-561l-80 -256h-281zM236 1526l307 327h307l307 -327h-307l-154 160h-10l-154 -160h-296zM492 512h401l-197 629h-10z" />
<glyph unicode="&#xc3;" horiz-adv-x="1392" d="M51 0l463 1434h367l460 -1434h-288l-80 256h-561l-80 -256h-281zM256 1536q0 147 91 247.5t208 100.5q72 0 126 -36t94 -71.5t81 -35.5q96 0 96 123h205q0 -158 -90 -253t-209 -95q-72 0 -125 35.5t-94 71.5t-82 36q-43 0 -69.5 -37t-26.5 -86h-205zM492 512h401 l-197 629h-10z" />
<glyph unicode="&#xc4;" horiz-adv-x="1392" d="M51 0l463 1434h367l460 -1434h-288l-80 256h-561l-80 -256h-281zM262 1700q0 74 45 124t119 50t119 -50t45 -124t-44 -124t-120 -50t-120 50t-44 124zM492 512h401l-197 629h-10zM805 1700q0 74 45 124t118.5 50t119 -50t45.5 -124t-44.5 -124t-120 -50t-119.5 50 t-44 124z" />
<glyph unicode="&#xc5;" horiz-adv-x="1392" d="M51 0l463 1434h367l460 -1434h-288l-80 256h-561l-80 -256h-281zM440 1720q0 106 75 176t181.5 70t181 -69.5t74.5 -176.5q0 -104 -74.5 -174.5t-181 -70.5t-181.5 70.5t-75 174.5zM492 512h401l-197 629h-10zM604 1720q0 -37 27.5 -64.5t64.5 -27.5q39 0 65.5 27.5 t26.5 64.5q0 39 -26.5 65.5t-65.5 26.5q-37 0 -64.5 -26.5t-27.5 -65.5z" />
<glyph unicode="&#xc6;" horiz-adv-x="1955" d="M51 0l737 1434h1014v-267h-553v-286h461v-267h-461v-348h553v-266h-829v266h-486l-135 -266h-301zM621 522h352v666h-10z" />
<glyph unicode="&#xc7;" horiz-adv-x="1228" d="M113 717q0 182 77.5 349t229 277.5t338.5 110.5q227 0 399 -162l-184 -198q-100 84 -215 84q-147 0 -258 -128t-111 -333t110.5 -333t258.5 -128q119 0 215 84l184 -199q-143 -133 -334 -157l-26 -45q137 -23 187 -63t50 -101q0 -72 -81 -118t-236 -46q-96 0 -157.5 15.5 t-149.5 56.5l102 143q70 -61 197 -62q90 0 90 41q0 10 -12.5 20.5t-39 20t-48 14.5t-60.5 14t-55 13l61 105q-236 45 -384 259t-148 466z" />
<glyph unicode="&#xc8;" horiz-adv-x="1167" d="M184 0v1434h830v-267h-553v-286h461v-267h-461v-348h553v-266h-830zM229 1874h389l164 -348h-256z" />
<glyph unicode="&#xc9;" horiz-adv-x="1167" d="M184 0v1434h830v-267h-553v-286h461v-267h-461v-348h553v-266h-830zM354 1526l174 348h379l-307 -348h-246z" />
<glyph unicode="&#xca;" horiz-adv-x="1167" d="M133 1526l307 327h308l307 -327h-307l-154 160h-10l-154 -160h-297zM184 0v1434h830v-267h-553v-286h461v-267h-461v-348h553v-266h-830z" />
<glyph unicode="&#xcb;" horiz-adv-x="1167" d="M150 1700q0 74 45 124t118.5 50t118.5 -50t45 -124t-44 -124t-119.5 -50t-119.5 50t-44 124zM184 0v1434h830v-267h-553v-286h461v-267h-461v-348h553v-266h-830zM692 1700q0 74 45 124t119 50t119 -50t45 -124t-44 -124t-120 -50t-120 50t-44 124z" />
<glyph unicode="&#xcc;" horiz-adv-x="645" d="M-20 1874h389l163 -348h-256zM184 0v1434h277v-1434h-277z" />
<glyph unicode="&#xcd;" horiz-adv-x="645" d="M143 1526l174 348h379l-307 -348h-246zM184 0v1434h277v-1434h-277z" />
<glyph unicode="&#xce;" horiz-adv-x="645" d="M-137 1526l307 327h307l307 -327h-307l-153 160h-11l-153 -160h-297zM184 0v1434h277v-1434h-277z" />
<glyph unicode="&#xcf;" horiz-adv-x="645" d="M-96 1700q0 72 47 123t123 51t122 -50t46 -124t-46 -124t-122 -50t-123 50t-47 124zM184 0v1434h277v-1434h-277zM406 1700q0 72 47 123t122.5 51t121.5 -50t46 -124t-46 -124t-121.5 -50t-122.5 50t-47 124z" />
<glyph unicode="&#xd0;" horiz-adv-x="1402" d="M61 614v246h123v574h492q186 0 329.5 -105.5t214 -266.5t70.5 -345.5t-70.5 -345t-214 -266t-329.5 -105.5h-492v614h-123zM461 266h215q145 0 241.5 122t96.5 329t-96.5 328.5t-241.5 121.5h-215v-307h246v-246h-246v-348z" />
<glyph unicode="&#xd1;" horiz-adv-x="1505" d="M184 0v1434h308l555 -967h8v967h266v-1434h-307l-553 967h-10v-967h-267zM311 1536q0 147 91.5 247.5t207.5 100.5q57 0 103.5 -22.5t73 -49t59.5 -49t65 -22.5q96 0 97 123h204q0 -158 -90 -253t-209 -95q-72 0 -125 35.5t-94 71.5t-82 36q-43 0 -69.5 -37t-26.5 -86 h-205z" />
<glyph unicode="&#xd2;" d="M92 717q0 182 78 349t229.5 277.5t338 110.5t337 -110.5t229 -277.5t78.5 -349t-78.5 -349t-229 -277.5t-337 -110.5t-338 110.5t-229.5 277.5t-78 349zM362 1874h390l163 -348h-256zM369 717q0 -207 110.5 -339t257.5 -132q145 0 257 133t112 338t-111.5 338t-257.5 133 q-147 0 -257.5 -132t-110.5 -339z" />
<glyph unicode="&#xd3;" d="M92 717q0 182 78 349t229.5 277.5t338 110.5t337 -110.5t229 -277.5t78.5 -349t-78.5 -349t-229 -277.5t-337 -110.5t-338 110.5t-229.5 277.5t-78 349zM369 717q0 -207 110.5 -339t257.5 -132q145 0 257 133t112 338t-111.5 338t-257.5 133q-147 0 -257.5 -132 t-110.5 -339zM567 1526l174 348h379l-307 -348h-246z" />
<glyph unicode="&#xd4;" d="M92 717q0 182 78 349t229.5 277.5t338 110.5t337 -110.5t229 -277.5t78.5 -349t-78.5 -349t-229 -277.5t-337 -110.5t-338 110.5t-229.5 277.5t-78 349zM276 1526l308 327h307l307 -327h-307l-154 160h-10l-154 -160h-297zM369 717q0 -207 110.5 -339t257.5 -132 q145 0 257 133t112 338t-111.5 338t-257.5 133q-147 0 -257.5 -132t-110.5 -339z" />
<glyph unicode="&#xd5;" d="M92 717q0 182 78 349t229.5 277.5t338 110.5t337 -110.5t229 -277.5t78.5 -349t-78.5 -349t-229 -277.5t-337 -110.5t-338 110.5t-229.5 277.5t-78 349zM297 1536q0 147 91 247.5t208 100.5q72 0 126 -36t94 -71.5t81 -35.5q96 0 96 123h205q0 -158 -90 -253t-209 -95 q-72 0 -125 35.5t-94 71.5t-82 36q-43 0 -69.5 -37t-26.5 -86h-205zM369 717q0 -207 110.5 -339t257.5 -132q145 0 257 133t112 338t-111.5 338t-257.5 133q-147 0 -257.5 -132t-110.5 -339z" />
<glyph unicode="&#xd6;" d="M92 717q0 182 78 349t229.5 277.5t338 110.5t337 -110.5t229 -277.5t78.5 -349t-78.5 -349t-229 -277.5t-337 -110.5t-338 110.5t-229.5 277.5t-78 349zM303 1700q0 74 45 124t119 50t119 -50t45 -124t-44 -124t-120 -50t-120 50t-44 124zM369 717q0 -207 110.5 -339 t257.5 -132q145 0 257 133t112 338t-111.5 338t-257.5 133q-147 0 -257.5 -132t-110.5 -339zM846 1700q0 74 45 124t118.5 50t119 -50t45.5 -124t-44.5 -124t-120 -50t-119.5 50t-44 124z" />
<glyph unicode="&#xd7;" horiz-adv-x="1290" d="M92 311l357 359l-357 358l195 195l362 -375l363 375l184 -195l-356 -358l358 -359l-194 -194l-365 375l-363 -375z" />
<glyph unicode="&#xd8;" d="M0 0l229 281q-137 209 -137 436q0 182 78 349t229.5 277.5t338 110.5t343.5 -125l84 105h310l-230 -283q137 -209 137 -434q0 -182 -78.5 -349t-229 -277.5t-337.5 -110.5q-184 0 -344 122l-82 -102h-311zM369 717q0 -129 37 -221l256 313l266 330q-80 49 -191 49 q-147 0 -257.5 -132t-110.5 -339zM547 295q80 -49 190 -49q145 0 257 133t112 338q0 127 -37 221l-256 -313z" />
<glyph unicode="&#xd9;" d="M184 502v932h277v-912q0 -121 80 -198.5t196 -77.5q119 0 198 68.5t79 187.5v932h276v-912q0 -227 -160.5 -384.5t-392.5 -157.5q-233 0 -393 148.5t-160 373.5zM403 1874h390l163 -348h-256z" />
<glyph unicode="&#xda;" d="M184 502v932h277v-912q0 -121 80 -198.5t196 -77.5q119 0 198 68.5t79 187.5v932h276v-912q0 -227 -160.5 -384.5t-392.5 -157.5q-233 0 -393 148.5t-160 373.5zM506 1526l174 348h379l-307 -348h-246z" />
<glyph unicode="&#xdb;" d="M184 502v932h277v-912q0 -121 80 -198.5t196 -77.5q119 0 198 68.5t79 187.5v932h276v-912q0 -227 -160.5 -384.5t-392.5 -157.5q-233 0 -393 148.5t-160 373.5zM276 1526l308 327h307l307 -327h-307l-154 160h-10l-154 -160h-297z" />
<glyph unicode="&#xdc;" d="M184 502v932h277v-912q0 -121 80 -198.5t196 -77.5q119 0 198 68.5t79 187.5v932h276v-912q0 -227 -160.5 -384.5t-392.5 -157.5q-233 0 -393 148.5t-160 373.5zM303 1700q0 74 45 124t119 50t119 -50t45 -124t-44 -124t-120 -50t-120 50t-44 124zM846 1700q0 74 45 124 t118.5 50t119 -50t45.5 -124t-44.5 -124t-120 -50t-119.5 50t-44 124z" />
<glyph unicode="&#xdd;" horiz-adv-x="1218" d="M41 1434h307l260 -492h10l261 492h299l-433 -752v-682h-276v682zM399 1526l174 348h379l-307 -348h-246z" />
<glyph unicode="&#xde;" horiz-adv-x="1269" d="M184 0v1434h277v-281h313q182 0 303 -128t121 -308q0 -178 -121 -302t-303 -124h-313v-291h-277zM461 557h291q76 0 123 49t47 121t-46.5 116t-123.5 44h-291v-330z" />
<glyph unicode="&#xdf;" horiz-adv-x="1310" d="M184 0v1100q0 178 141.5 297t319.5 119q180 0 320.5 -119t140.5 -297q0 -158 -109 -260q201 -129 201 -369q0 -207 -152.5 -339t-400.5 -132v266q139 0 208 55.5t69 149.5q0 96 -70 160.5t-207 64.5v256q88 0 136 43t48 105q0 78 -56 113.5t-128 35.5q-68 0 -126 -41 t-58 -118v-1090h-277z" />
<glyph unicode="&#xe0;" horiz-adv-x="1310" d="M113 532.5q0 229.5 132 391t328 161.5q145 0 267 -108h10v88h276v-1065h-276v86h-10q-119 -106 -267 -106q-197 0 -328.5 161.5t-131.5 391zM389 532q0 -121 66.5 -203.5t179.5 -82.5q152 0 215 139v293q-63 141 -215 141q-113 0 -179.5 -84t-66.5 -203zM444 1526h390 l163 -348h-256z" />
<glyph unicode="&#xe1;" horiz-adv-x="1310" d="M113 532.5q0 229.5 132 391t328 161.5q145 0 267 -108h10v88h276v-1065h-276v86h-10q-119 -106 -267 -106q-197 0 -328.5 161.5t-131.5 391zM389 532q0 -121 66.5 -203.5t179.5 -82.5q152 0 215 139v293q-63 141 -215 141q-113 0 -179.5 -84t-66.5 -203zM465 1178 l174 348h379l-307 -348h-246z" />
<glyph unicode="&#xe2;" horiz-adv-x="1310" d="M113 532.5q0 229.5 132 391t328 161.5q145 0 267 -108h10v88h276v-1065h-276v86h-10q-119 -106 -267 -106q-197 0 -328.5 161.5t-131.5 391zM236 1178l307 327h307l307 -327h-307l-154 159h-10l-154 -159h-296zM389 532q0 -121 66.5 -203.5t179.5 -82.5q152 0 215 139 v293q-63 141 -215 141q-113 0 -179.5 -84t-66.5 -203z" />
<glyph unicode="&#xe3;" horiz-adv-x="1310" d="M113 532.5q0 229.5 132 391t328 161.5q145 0 267 -108h10v88h276v-1065h-276v86h-10q-119 -106 -267 -106q-197 0 -328.5 161.5t-131.5 391zM256 1188q0 147 91 247.5t208 100.5q72 0 126 -36t94 -71.5t81 -35.5q96 0 96 123h205q0 -158 -90 -253.5t-209 -95.5 q-72 0 -125 36t-94 72t-82 36q-43 0 -69.5 -37t-26.5 -86h-205zM389 532q0 -121 66.5 -203.5t179.5 -82.5q152 0 215 139v293q-63 141 -215 141q-113 0 -179.5 -84t-66.5 -203z" />
<glyph unicode="&#xe4;" horiz-adv-x="1310" d="M113 532.5q0 229.5 132 391t328 161.5q145 0 267 -108h10v88h276v-1065h-276v86h-10q-119 -106 -267 -106q-197 0 -328.5 161.5t-131.5 391zM236 1351.5q0 73.5 45 124t118.5 50.5t118.5 -50.5t45 -124t-44 -123.5t-119.5 -50t-119.5 50t-44 123.5zM389 532 q0 -121 66.5 -203.5t179.5 -82.5q152 0 215 139v293q-63 141 -215 141q-113 0 -179.5 -84t-66.5 -203zM778 1351.5q0 73.5 45 124t119 50.5t119 -50.5t45 -124t-44 -123.5t-120 -50t-120 50t-44 123.5z" />
<glyph unicode="&#xe5;" horiz-adv-x="1310" d="M113 532.5q0 229.5 132 391t328 161.5q145 0 267 -108h10v88h276v-1065h-276v86h-10q-119 -106 -267 -106q-197 0 -328.5 161.5t-131.5 391zM389 532q0 -121 66.5 -203.5t179.5 -82.5q152 0 215 139v293q-63 141 -215 141q-113 0 -179.5 -84t-66.5 -203zM440 1372 q0 106 75 176t181.5 70t181 -69.5t74.5 -176.5q0 -104 -74.5 -175t-181 -71t-181.5 71t-75 175zM604 1372q0 -37 27.5 -64.5t64.5 -27.5q39 0 65.5 27.5t26.5 64.5q0 39 -26.5 65.5t-65.5 26.5q-37 0 -64.5 -26.5t-27.5 -65.5z" />
<glyph unicode="&#xe6;" horiz-adv-x="1935" d="M113 340q0 150 103 242t296 92q207 0 328 -96h10v67q0 82 -72.5 138.5t-204.5 56.5q-164 0 -278 -66l-121 207q186 104 399 104q268 0 426 -135q147 135 353 135q209 0 350 -145t141 -356v-123h-751q10 -100 79.5 -168t180.5 -68q135 0 254 111l168 -199 q-180 -158 -422 -157q-229 0 -383 163q-154 -164 -457 -163q-190 0 -294.5 103t-104.5 257zM389 360.5q0 -59.5 51.5 -97.5t153.5 -38q147 0 276 82q-20 47 -20 113q-129 70 -256 69q-102 0 -153.5 -34.5t-51.5 -94zM1096 625h471q0 78 -61.5 146.5t-164.5 68.5 q-100 0 -161 -59.5t-84 -155.5z" />
<glyph unicode="&#xe7;" horiz-adv-x="1024" d="M113 532q0 229 152.5 391t379.5 162q172 0 307 -90l-149 -225q-70 49 -158 49q-111 0 -183.5 -85t-72.5 -202q0 -119 73 -202.5t183 -83.5q88 0 158 49l149 -225q-119 -82 -274 -88l-25 -43q137 -23 187.5 -63t50.5 -101q0 -72 -81 -118t-237 -46q-96 0 -157.5 15.5 t-149.5 56.5l103 143q68 -61 194 -62q90 0 90 41q0 10 -12 20.5t-39 20t-47 14.5t-59 14t-56 13l66 111q-176 47 -284.5 194t-108.5 340z" />
<glyph unicode="&#xe8;" horiz-adv-x="1228" d="M113 532.5q0 229.5 152.5 391t379.5 161.5q209 0 350.5 -145t141.5 -356v-123h-752q10 -100 80 -168t180 -68q135 0 254 111l168 -199q-180 -158 -422 -157q-227 0 -379.5 161.5t-152.5 391zM260 1526h389l164 -348h-256zM389 625h471q0 78 -61.5 146.5t-163.5 68.5 q-100 0 -161.5 -59.5t-84.5 -155.5z" />
<glyph unicode="&#xe9;" horiz-adv-x="1228" d="M113 532.5q0 229.5 152.5 391t379.5 161.5q209 0 350.5 -145t141.5 -356v-123h-752q10 -100 80 -168t180 -68q135 0 254 111l168 -199q-180 -158 -422 -157q-227 0 -379.5 161.5t-152.5 391zM389 625h471q0 78 -61.5 146.5t-163.5 68.5q-100 0 -161.5 -59.5t-84.5 -155.5 zM444 1178l174 348h379l-307 -348h-246z" />
<glyph unicode="&#xea;" horiz-adv-x="1228" d="M113 532.5q0 229.5 152.5 391t379.5 161.5q209 0 350.5 -145t141.5 -356v-123h-752q10 -100 80 -168t180 -68q135 0 254 111l168 -199q-180 -158 -422 -157q-227 0 -379.5 161.5t-152.5 391zM184 1178l308 327h307l307 -327h-307l-154 159h-10l-154 -159h-297zM389 625 h471q0 78 -61.5 146.5t-163.5 68.5q-100 0 -161.5 -59.5t-84.5 -155.5z" />
<glyph unicode="&#xeb;" horiz-adv-x="1228" d="M113 532.5q0 229.5 152.5 391t379.5 161.5q209 0 350.5 -145t141.5 -356v-123h-752q10 -100 80 -168t180 -68q135 0 254 111l168 -199q-180 -158 -422 -157q-227 0 -379.5 161.5t-152.5 391zM211 1351.5q0 73.5 45 124t119 50.5t119 -50.5t45 -124t-44 -123.5t-120 -50 t-120 50t-44 123.5zM389 625h471q0 78 -61.5 146.5t-163.5 68.5q-100 0 -161.5 -59.5t-84.5 -155.5zM754 1351.5q0 73.5 45 124t118.5 50.5t118.5 -50.5t45 -124t-44 -123.5t-119.5 -50t-119.5 50t-44 123.5z" />
<glyph unicode="&#xec;" horiz-adv-x="645" d="M-20 1526h389l163 -348h-256zM184 0v1065h277v-1065h-277z" />
<glyph unicode="&#xed;" horiz-adv-x="645" d="M123 1178l174 348h379l-307 -348h-246zM184 0v1065h277v-1065h-277z" />
<glyph unicode="&#xee;" horiz-adv-x="645" d="M-137 1178l307 327h307l307 -327h-307l-153 159h-11l-153 -159h-297zM184 0v1065h277v-1065h-277z" />
<glyph unicode="&#xef;" horiz-adv-x="645" d="M-96 1352q0 72 47 123t123 51t122 -50.5t46 -124t-46 -123.5t-122 -50t-123 50t-47 124zM184 0v1065h277v-1065h-277zM406 1352q0 72 47 123t122.5 51t121.5 -50.5t46 -124t-46 -123.5t-121.5 -50t-122.5 50t-47 124z" />
<glyph unicode="&#xf0;" horiz-adv-x="1269" d="M92 508q0 199 139.5 342t346.5 143q115 0 235 -71h10q-41 119 -194 272l-373 -170v184l233 107q-109 88 -274 170l10 10h400q31 -23 92 -76l276 127v-184l-151 -70q143 -160 229 -349t86 -380q0 -274 -157.5 -428.5t-374.5 -154.5q-225 0 -379 155.5t-154 372.5zM369 487 q0 -92 72.5 -166.5t183.5 -74.5q109 0 182.5 74.5t73.5 166.5q0 94 -71 167t-185 73q-117 0 -186.5 -72t-69.5 -168z" />
<glyph unicode="&#xf1;" horiz-adv-x="1269" d="M184 0v1065h277v-82h10q109 102 250 102q164 0 274.5 -110.5t110.5 -274.5v-700h-277v625q0 84 -53 139t-131 55t-131 -55t-53 -139v-625h-277zM195 1188q0 147 91 247.5t208 100.5q72 0 126 -36t94 -71.5t81 -35.5q96 0 96 123h205q0 -158 -90.5 -253.5t-208.5 -95.5 q-72 0 -125.5 36t-94 72t-81.5 36q-43 0 -70 -37t-27 -86h-204z" />
<glyph unicode="&#xf2;" horiz-adv-x="1249" d="M92 532.5q0 229.5 152.5 391t380 161.5t380 -161.5t152.5 -391t-152.5 -391t-380 -161.5t-380 161.5t-152.5 391zM250 1526h389l164 -348h-256zM369 532q0 -119 72.5 -202.5t183.5 -83.5q113 0 184.5 84t71.5 202q0 117 -72 202t-184 85q-111 0 -183.5 -85t-72.5 -202z " />
<glyph unicode="&#xf3;" horiz-adv-x="1249" d="M92 532.5q0 229.5 152.5 391t380 161.5t380 -161.5t152.5 -391t-152.5 -391t-380 -161.5t-380 161.5t-152.5 391zM369 532q0 -119 72.5 -202.5t183.5 -83.5q113 0 184.5 84t71.5 202q0 117 -72 202t-184 85q-111 0 -183.5 -85t-72.5 -202zM455 1178l174 348h379 l-308 -348h-245z" />
<glyph unicode="&#xf4;" horiz-adv-x="1249" d="M92 532.5q0 229.5 152.5 391t380 161.5t380 -161.5t152.5 -391t-152.5 -391t-380 -161.5t-380 161.5t-152.5 391zM164 1178l307 327h307l307 -327h-307l-153 159h-11l-153 -159h-297zM369 532q0 -119 72.5 -202.5t183.5 -83.5q113 0 184.5 84t71.5 202q0 117 -72 202 t-184 85q-111 0 -183.5 -85t-72.5 -202z" />
<glyph unicode="&#xf5;" horiz-adv-x="1249" d="M92 532.5q0 229.5 152.5 391t380 161.5t380 -161.5t152.5 -391t-152.5 -391t-380 -161.5t-380 161.5t-152.5 391zM184 1188q0 147 91.5 247.5t207.5 100.5q57 0 103.5 -22.5t73 -49t59.5 -49t65 -22.5q96 0 97 123h204q0 -158 -90 -253.5t-209 -95.5q-72 0 -125 36 t-94 72t-82 36q-43 0 -69.5 -37t-26.5 -86h-205zM369 532q0 -119 72.5 -202.5t183.5 -83.5q113 0 184.5 84t71.5 202q0 117 -72 202t-184 85q-111 0 -183.5 -85t-72.5 -202z" />
<glyph unicode="&#xf6;" horiz-adv-x="1249" d="M92 532.5q0 229.5 152.5 391t380 161.5t380 -161.5t152.5 -391t-152.5 -391t-380 -161.5t-380 161.5t-152.5 391zM190 1351.5q0 73.5 45.5 124t119 50.5t118.5 -50.5t45 -124t-44 -123.5t-119.5 -50t-120 50t-44.5 123.5zM369 532q0 -119 72.5 -202.5t183.5 -83.5 q113 0 184.5 84t71.5 202q0 117 -72 202t-184 85q-111 0 -183.5 -85t-72.5 -202zM733 1351.5q0 73.5 45 124t119 50.5t119 -50.5t45 -124t-44 -123.5t-120 -50t-120 50t-44 123.5z" />
<glyph unicode="&#xf7;" horiz-adv-x="1290" d="M92 532v277h1106v-277h-1106zM461 205q0 82 52 143.5t132 61.5q82 0 133 -60.5t51 -144.5t-51 -144.5t-133 -60.5q-80 0 -132 61.5t-52 143.5zM461 1137q0 82 52 143t132 61q82 0 133 -60t51 -144t-51 -144.5t-133 -60.5q-80 0 -132 61.5t-52 143.5z" />
<glyph unicode="&#xf8;" horiz-adv-x="1249" d="M72 0l149 182q-129 156 -129 350q0 229 152.5 391t380.5 162q143 0 268 -79l47 59h238l-150 -180q129 -160 129 -353q0 -229 -152.5 -390.5t-379.5 -161.5q-139 0 -269 79l-47 -59h-237zM358 532q0 -80 29 -147l174 209l172 215q-55 20 -108 20q-111 0 -189 -90t-78 -207 zM516 256q51 -20 109 -20q113 0 189.5 89t76.5 207q0 80 -29 148l-172 -207z" />
<glyph unicode="&#xf9;" horiz-adv-x="1269" d="M164 365v700h276v-625q0 -84 53.5 -139t131 -55t131 55t53.5 139v625h276v-1065h-276v82h-10q-109 -102 -250 -102q-164 0 -274.5 110.5t-110.5 274.5zM317 1526h390l163 -348h-256z" />
<glyph unicode="&#xfa;" horiz-adv-x="1269" d="M164 365v700h276v-625q0 -84 53.5 -139t131 -55t131 55t53.5 139v625h276v-1065h-276v82h-10q-109 -102 -250 -102q-164 0 -274.5 110.5t-110.5 274.5zM379 1178l174 348h379l-307 -348h-246z" />
<glyph unicode="&#xfb;" horiz-adv-x="1269" d="M164 365v700h276v-625q0 -84 53.5 -139t131 -55t131 55t53.5 139v625h276v-1065h-276v82h-10q-109 -102 -250 -102q-164 0 -274.5 110.5t-110.5 274.5zM168 1178l307 327h307l308 -327h-308l-153 159h-11l-153 -159h-297z" />
<glyph unicode="&#xfc;" horiz-adv-x="1269" d="M164 365v700h276v-625q0 -84 53.5 -139t131 -55t131 55t53.5 139v625h276v-1065h-276v82h-10q-109 -102 -250 -102q-164 0 -274.5 110.5t-110.5 274.5zM195 1351.5q0 73.5 45 124t118.5 50.5t118.5 -50.5t45 -124t-44 -123.5t-119.5 -50t-119.5 50t-44 123.5zM737 1351.5 q0 73.5 45 124t119 50.5t119 -50.5t45 -124t-44 -123.5t-120 -50t-120 50t-44 123.5z" />
<glyph unicode="&#xfd;" horiz-adv-x="1208" d="M51 1065h305l248 -717h10l248 717h295l-539 -1434h-294l137 369zM373 1178l174 348h379l-308 -348h-245z" />
<glyph unicode="&#xfe;" horiz-adv-x="1310" d="M184 -369v1864h277v-518h10q121 109 266 108q197 0 329 -161.5t132 -391t-132 -391t-329 -161.5q-147 0 -266 106h-10v-455h-277zM461 385q63 -139 215 -139q113 0 179.5 83t66.5 203q0 119 -67 203t-179 84q-152 0 -215 -141v-293z" />
<glyph unicode="&#xff;" horiz-adv-x="1208" d="M51 1065h305l248 -717h10l248 717h295l-539 -1434h-294l137 369zM170 1351.5q0 73.5 45 124t119 50.5t119 -50.5t45 -124t-44 -123.5t-120 -50t-120 50t-44 123.5zM713 1351.5q0 73.5 45 124t118.5 50.5t118.5 -50.5t45 -124t-44 -123.5t-119.5 -50t-119.5 50t-44 123.5z " />
<glyph unicode="&#x152;" horiz-adv-x="2048" d="M92 717q0 182 78 349t229.5 277.5t337.5 110.5q182 0 318 -123h10v103h829v-246h-553v-307h461v-267h-461v-368h553v-246h-829v100h-10q-133 -121 -318 -120q-186 0 -337.5 110.5t-229.5 277.5t-78 349zM369 717q0 -207 110.5 -339t257.5 -132q102 0 190.5 64.5 t137.5 178.5v455q-49 115 -138 179.5t-190 64.5q-147 0 -257.5 -132t-110.5 -339z" />
<glyph unicode="&#x153;" horiz-adv-x="1996" d="M92 532.5q0 229.5 152.5 391t380.5 161.5q252 0 403 -184q152 184 385 184q209 0 350.5 -147t141.5 -360v-117h-752q10 -98 83 -167t177 -69q147 0 254 101l168 -189q-180 -158 -422 -157q-121 0 -228.5 49t-176.5 133q-152 -182 -383 -182q-227 0 -380 161.5t-153 391z M369 532q0 -119 72.5 -202.5t183.5 -83.5q113 0 184.5 84t71.5 202q0 117 -72 202t-184 85q-111 0 -183.5 -85t-72.5 -202zM1157 625h471q0 78 -62.5 146.5t-162.5 68.5q-102 0 -167 -61.5t-79 -153.5z" />
<glyph unicode="&#x178;" horiz-adv-x="1218" d="M41 1434h307l260 -492h10l261 492h299l-433 -752v-682h-276v682zM174 1700q0 74 45 124t119 50t119 -50t45 -124t-44 -124t-120 -50t-120 50t-44 124zM717 1700q0 74 45 124t118.5 50t118.5 -50t45 -124t-44 -124t-119.5 -50t-119.5 50t-44 124z" />
<glyph unicode="&#x2c6;" horiz-adv-x="1167" d="M123 1178l307 327h307l307 -327h-307l-153 159h-11l-153 -159h-297z" />
<glyph unicode="&#x2dc;" horiz-adv-x="1167" d="M143 1188q0 147 91.5 247.5t207.5 100.5q57 0 103.5 -22.5t73 -49t59.5 -49t65 -22.5q96 0 97 123h204q0 -158 -90 -253.5t-209 -95.5q-72 0 -125 36t-94 72t-82 36q-43 0 -69.5 -37t-26.5 -86h-205z" />
<glyph unicode="&#x2013;" horiz-adv-x="1290" d="M92 348v277h1106v-277h-1106z" />
<glyph unicode="&#x2014;" horiz-adv-x="1843" d="M92 348v277h1659v-277h-1659z" />
<glyph unicode="&#x2018;" horiz-adv-x="563" d="M143 870v400l277 184v-584h-277z" />
<glyph unicode="&#x2019;" horiz-adv-x="563" d="M143 870v584h277v-399z" />
<glyph unicode="&#x201a;" horiz-adv-x="563" d="M143 -307v676h277v-492z" />
<glyph unicode="&#x201c;" horiz-adv-x="983" d="M143 870v400l256 184v-584h-256zM584 870v400l256 184v-584h-256z" />
<glyph unicode="&#x201d;" horiz-adv-x="983" d="M143 870v584h256v-399zM584 870v584h256v-399z" />
<glyph unicode="&#x201e;" horiz-adv-x="983" d="M143 -215v584h256v-400zM584 -215v584h256v-400z" />
<glyph unicode="&#x2022;" horiz-adv-x="1105" d="M184 532.5q0 151.5 108.5 260t260.5 108.5q154 0 261.5 -108.5t107.5 -260t-107.5 -260t-261.5 -108.5q-152 0 -260.5 108.5t-108.5 260z" />
<glyph unicode="&#x2026;" horiz-adv-x="1822" d="M113 174q0 82 51 138.5t133 56.5t133 -56.5t51 -138.5t-51 -138t-133 -56t-133 56t-51 138zM727 174q0 82 51 138.5t133 56.5t133.5 -56.5t51.5 -138.5t-51.5 -138t-133.5 -56t-133 56t-51 138zM1341 174q0 82 51.5 138.5t133.5 56.5t133 -56.5t51 -138.5t-51 -138 t-133 -56t-133.5 56t-51.5 138z" />
<glyph unicode="&#x2039;" horiz-adv-x="737" d="M92 440v226l553 348v-287l-313 -170v-10l313 -178v-297z" />
<glyph unicode="&#x203a;" horiz-adv-x="737" d="M92 72v286l314 170v11l-314 178v297l553 -369v-225z" />
<glyph unicode="&#x20ac;" horiz-adv-x="1228" d="M20 471v184h127q-4 33 -4 62l4 71h-127v185h160q47 205 205 343t373 138q227 0 399 -162l-180 -188q-100 84 -219 84q-104 0 -189.5 -58.5t-122.5 -156.5h404v-185h-455q-6 -25 -6 -71l4 -62h457v-184h-408q35 -100 126 -162.5t190 -62.5q123 0 219 84l180 -189 q-172 -162 -399 -161q-219 0 -378 141t-202 350h-158z" />
<glyph unicode="&#x2122;" horiz-adv-x="1607" d="M92 1270v164h512v-164h-164v-574h-184v574h-164zM717 696v738h205l153 -201q20 33 71.5 100.5t72.5 100.5h204v-738h-184v482l-168 -224l-170 224v-482h-184z" />
<glyph unicode="&#xe000;" horiz-adv-x="1065" d="M0 1065h1065v-1065h-1065v1065z" />
<glyph unicode="&#xfb01;" horiz-adv-x="1443" d="M102 799v266h123v246q0 80 52.5 132t132.5 52h245v-266h-61q-43 0 -67.5 -25.5t-24.5 -66.5v-72h153v-266h-153v-799h-277v799h-123zM952 1352q0 72 47.5 123t123 51t121.5 -50.5t46 -124t-46 -123.5t-121.5 -50t-123 50t-47.5 124zM983 0v1065h277v-1065h-277z" />
<glyph unicode="&#xfb02;" horiz-adv-x="1443" d="M102 799v266h123v246q0 80 52.5 132t132.5 52h245v-266h-61q-43 0 -67.5 -25.5t-24.5 -66.5v-72h153v-266h-153v-799h-277v799h-123zM983 0v1495h277v-1495h-277z" />
<glyph unicode="&#xfb03;" horiz-adv-x="2242" d="M1751 1352q0 72 47 123t122.5 51t122 -50.5t46.5 -124t-46.5 -123.5t-122 -50t-122.5 50t-47 124zM1781 0v1065h277v-1065h-277zM901 799v266h123v246q0 80 52.5 132t132.5 52h245v-266h-61q-43 0 -67.5 -25.5t-24.5 -66.5v-72h153v-266h-153v-799h-277v799h-123z M102 799v266h123v246q0 80 52.5 132t132.5 52h245v-266h-61q-43 0 -67.5 -25.5t-24.5 -66.5v-72h153v-266h-153v-799h-277v799h-123z" />
<glyph unicode="&#xfb04;" horiz-adv-x="2242" d="M1781 0v1495h277v-1495h-277zM901 799v266h123v246q0 80 52.5 132t132.5 52h245v-266h-61q-43 0 -67.5 -25.5t-24.5 -66.5v-72h153v-266h-153v-799h-277v799h-123zM102 799v266h123v246q0 80 52.5 132t132.5 52h245v-266h-61q-43 0 -67.5 -25.5t-24.5 -66.5v-72h153v-266 h-153v-799h-277v799h-123z" />
</font>
</defs>
</svg>
