<?xml version="1.0" encoding="utf-8"?>
<!-- Generator: Adobe Illustrator 15.1.0, SVG Export Plug-In . SVG Version: 6.00 Build 0)  -->
<!DOCTYPE svg PUBLIC "-//W3C//DTD SVG 1.1//EN" "http://www.w3.org/Graphics/SVG/1.1/DTD/svg11.dtd">
<svg version="1.1" id="Layer_1" xmlns="http://www.w3.org/2000/svg" xmlns:xlink="http://www.w3.org/1999/xlink" x="0px" y="0px"
	 width="34px" height="34px" viewBox="0 0 34 34" enable-background="new 0 0 34 34" xml:space="preserve">
<path d="M16.974,0.229C7.744,0.229,0.202,7.717,0.202,17c0,9.281,7.594,16.771,16.824,16.771c9.229,0,16.771-7.49,16.771-16.771
	C33.798,7.77,26.203,0.229,16.974,0.229z M21.041,22.171c-0.912,0.449-2.889,0.785-4.067,0.28c-0.498-0.214-0.73-0.643-1.332-0.771
	c-0.343,1.373-0.673,3.376-1.402,4.487c-0.285,0.435-1.478,0.599-1.753,0c-0.575-1.248,1.31-6.933,1.542-8.133
	c0.17-0.875-0.966-2.357,0.07-4.067c0.37-0.61,1.849-1.73,2.664-0.771c2.406,1.466-2.541,6.601,0.912,7.502
	c4.136,1.081,5.428-7.867,2.313-9.605c-4.023-2.246-7.798,0.645-8.484,3.996c-0.371,1.811,0.818,2.353,0.981,3.576
	c-0.126,0.416-0.21,0.915-0.561,1.121c-1.995,0.58-3.043-4.099-2.314-6.239c0.646-1.898,2.222-3.653,3.996-4.417
	c0.795-0.211,1.59-0.421,2.384-0.632c3.917-0.469,6.931,1.18,8.203,4.207C25.737,16.374,23.324,21.046,21.041,22.171z"/>
</svg>
