<?xml version="1.0" encoding="utf-8"?>
<!-- Generator: Adobe Illustrator 15.1.0, SVG Export Plug-In . SVG Version: 6.00 Build 0)  -->
<!DOCTYPE svg PUBLIC "-//W3C//DTD SVG 1.1//EN" "http://www.w3.org/Graphics/SVG/1.1/DTD/svg11.dtd">
<svg version="1.1" id="Layer_1" xmlns="http://www.w3.org/2000/svg" xmlns:xlink="http://www.w3.org/1999/xlink" x="0px" y="0px"
	 width="34px" height="34px" viewBox="0 0 34 34" enable-background="new 0 0 34 34" xml:space="preserve">
<path d="M34,17c0,9.349-7.597,17-17.001,17C7.597,34,0,26.404,0,17S7.65,0,16.999,0C26.351,0,34,7.597,34,17z M25.925,12.06
	c-0.637,0.266-1.275,0.478-1.965,0.531c0.689-0.425,1.274-1.115,1.539-1.912c-0.689,0.371-1.381,0.689-2.178,0.85
	c-0.637-0.691-1.541-1.116-2.496-1.116c-1.912,0-3.453,1.54-3.453,3.453c0,0.266,0.053,0.532,0.105,0.797
	c-2.868-0.16-5.418-1.541-7.118-3.613c-0.319,0.531-0.478,1.115-0.478,1.753c0,1.221,0.584,2.231,1.541,2.869
	c-0.584,0-1.115-0.16-1.541-0.425V15.3c0,1.648,1.168,3.081,2.762,3.4c-0.266,0.053-0.584,0.106-0.903,0.106
	c-0.212,0-0.425,0-0.637-0.054c0.425,1.382,1.7,2.392,3.24,2.392c-1.169,0.902-2.657,1.486-4.303,1.486
	c-0.266,0-0.531,0-0.796-0.053c1.541,0.957,3.347,1.541,5.312,1.541c6.322,0,9.828-5.26,9.828-9.829c0-0.159,0-0.318,0-0.424
	C24.862,13.388,25.447,12.75,25.925,12.06z"/>
</svg>
